<svg width="85" height="44" viewBox="0 0 85 44" fill="none" xmlns="http://www.w3.org/2000/svg">
<path d="M49.9002 27.7963C49.0736 27.7411 48.4483 27.0263 48.5036 26.1997L49.4036 12.7297C49.4588 11.9031 50.1737 11.2778 51.0003 11.333C51.8268 11.3883 52.4522 12.1031 52.3969 12.9297L51.5969 24.903L63.5702 25.703C64.3968 25.7583 65.0221 26.4731 64.9669 27.2997C64.9116 28.1263 64.1968 28.7516 63.3702 28.6964L49.9002 27.7963ZM81.9812 27.7548C78.5744 24.1091 74.4725 20.9001 69.509 20.1065C64.623 19.3253 58.5289 20.8322 50.9878 27.4287L49.0126 25.1707C56.9953 18.1879 63.954 16.1802 69.9826 17.1441C75.9337 18.0957 80.6084 21.8918 84.1731 25.7065L81.9812 27.7548Z" fill="black"/>
<path d="M2 35.25C2 33.9902 2.49386 32.782 3.37294 31.8912C4.25201 31.0004 5.4443 30.5 6.6875 30.5H32" fill="#C3E6FF"/>
<path d="M6.6875 2H32V40H6.6875C5.4443 40 4.25201 39.4996 3.37294 38.6088C2.49386 37.718 2 36.5098 2 35.25V6.75C2 5.49022 2.49386 4.28204 3.37294 3.39124C4.25201 2.50044 5.4443 2 6.6875 2Z" fill="#C3E6FF"/>
<path d="M2 35.25C2 33.9902 2.49386 32.782 3.37294 31.8912C4.25201 31.0004 5.4443 30.5 6.6875 30.5H32M2 35.25C2 36.5098 2.49386 37.718 3.37294 38.6088C4.25201 39.4996 5.4443 40 6.6875 40H32V2H6.6875C5.4443 2 4.25201 2.50044 3.37294 3.39124C2.49386 4.28204 2 5.49022 2 6.75V35.25Z" stroke="#1E1E1E" stroke-width="4" stroke-linecap="round" stroke-linejoin="round"/>
</svg>
