<svg width="669" height="216" viewBox="0 0 669 216" fill="none" xmlns="http://www.w3.org/2000/svg">
<path d="M148.975 106.095C149.579 106.661 150.529 106.63 151.095 106.025L160.322 96.1708C160.888 95.5661 160.857 94.6169 160.252 94.0507C159.648 93.4844 158.698 93.5156 158.132 94.1204L149.93 102.88L141.171 94.6779C140.566 94.1117 139.617 94.1429 139.051 94.7476C138.484 95.3523 138.516 96.3015 139.12 96.8678L148.975 106.095ZM103 57.5C113.363 57.5 124.356 59.1637 132.917 65.818C141.417 72.4242 147.815 84.1874 148.501 105.049L151.499 104.951C150.794 83.5025 144.171 70.7657 134.758 63.4494C125.407 56.1812 113.595 54.5 103 54.5V57.5Z" fill="black"/>
<path d="M55.0403 108.919C54.4435 108.345 53.4939 108.363 52.9194 108.96L43.5565 118.685C42.9819 119.282 43 120.232 43.5968 120.806C44.1936 121.381 45.1432 121.363 45.7177 120.766L54.0403 112.121L62.6852 120.443C63.282 121.018 64.2316 121 64.8062 120.403C65.3807 119.806 65.3627 118.857 64.7659 118.282L55.0403 108.919ZM98 157.5C84.8396 157.5 74.4429 153.678 67.2428 145.978C60.0239 138.257 55.8122 126.418 55.4997 109.972L52.5003 110.028C52.8212 126.921 57.1558 139.582 65.0515 148.027C72.9662 156.492 84.2528 160.5 98 160.5L98 157.5Z" fill="black"/>
<path d="M112.431 195.63C112.431 192.649 113.616 189.789 115.724 187.68C117.833 185.572 120.693 184.387 123.674 184.387H184.387" fill="#FFCA97"/>
<path d="M123.674 116.929H184.387V206.874H123.674C120.693 206.874 117.833 205.689 115.724 203.581C113.616 201.472 112.431 198.612 112.431 195.63V128.172C112.431 125.19 113.616 122.33 115.724 120.222C117.833 118.113 120.693 116.929 123.674 116.929Z" fill="#FFCA97"/>
<path d="M112.431 195.63C112.431 192.649 113.616 189.789 115.724 187.68C117.833 185.572 120.693 184.387 123.674 184.387H184.387M112.431 195.63C112.431 198.612 113.616 201.472 115.724 203.581C117.833 205.689 120.693 206.874 123.674 206.874H184.387V116.929H123.674C120.693 116.929 117.833 118.113 115.724 120.222C113.616 122.33 112.431 125.19 112.431 128.172V195.63Z" stroke="#1E1E1E" stroke-width="4" stroke-linecap="round" stroke-linejoin="round"/>
<path d="M17.989 87.6964C17.989 84.7146 19.1736 81.8548 21.2821 79.7463C23.3905 77.6378 26.2503 76.4533 29.2321 76.4533H89.9451" fill="#C3E6FF"/>
<path d="M29.2321 8.9945H89.9451V98.9395H29.2321C26.2503 98.9395 23.3905 97.755 21.2821 95.6465C19.1736 93.538 17.989 90.6783 17.989 87.6964V20.2376C17.989 17.2558 19.1736 14.396 21.2821 12.2875C23.3905 10.179 26.2503 8.9945 29.2321 8.9945Z" fill="#C3E6FF"/>
<path d="M17.989 87.6964C17.989 84.7145 19.1736 81.8548 21.2821 79.7463C23.3905 77.6378 26.2503 76.4533 29.2321 76.4533H89.9451M17.989 87.6964C17.989 90.6783 19.1736 93.538 21.2821 95.6465C23.3905 97.755 26.2503 98.9395 29.2321 98.9395H89.9451V8.9945H29.2321C26.2503 8.9945 23.3905 10.179 21.2821 12.2875C19.1736 14.396 17.989 17.2558 17.989 20.2376V87.6964Z" stroke="#1E1E1E" stroke-width="4" stroke-linecap="round" stroke-linejoin="round"/>
<path d="M222.392 132V73.8182H243.699C247.828 73.8182 251.246 74.5 253.955 75.8636C256.663 77.2083 258.689 79.036 260.034 81.3466C261.379 83.6383 262.051 86.2235 262.051 89.1023C262.051 91.5265 261.606 93.572 260.716 95.2386C259.826 96.8864 258.633 98.2121 257.136 99.2159C255.659 100.201 254.03 100.92 252.25 101.375V101.943C254.182 102.038 256.066 102.663 257.903 103.818C259.759 104.955 261.294 106.574 262.506 108.676C263.718 110.778 264.324 113.335 264.324 116.347C264.324 119.32 263.623 121.991 262.222 124.358C260.839 126.706 258.699 128.572 255.801 129.955C252.903 131.318 249.201 132 244.693 132H222.392ZM231.17 124.472H243.841C248.045 124.472 251.057 123.657 252.875 122.028C254.693 120.4 255.602 118.364 255.602 115.92C255.602 114.083 255.138 112.398 254.21 110.864C253.282 109.33 251.956 108.108 250.233 107.199C248.528 106.29 246.502 105.835 244.153 105.835H231.17V124.472ZM231.17 98.9886H242.932C244.902 98.9886 246.672 98.6098 248.244 97.8523C249.835 97.0947 251.095 96.0341 252.023 94.6705C252.97 93.2879 253.443 91.6591 253.443 89.7841C253.443 87.3788 252.6 85.3617 250.915 83.733C249.229 82.1042 246.644 81.2898 243.159 81.2898H231.17V98.9886ZM292.435 132.881C288.344 132.881 284.774 131.943 281.724 130.068C278.675 128.193 276.308 125.57 274.622 122.199C272.937 118.828 272.094 114.888 272.094 110.381C272.094 105.854 272.937 101.896 274.622 98.5057C276.308 95.1155 278.675 92.483 281.724 90.608C284.774 88.733 288.344 87.7955 292.435 87.7955C296.526 87.7955 300.096 88.733 303.145 90.608C306.194 92.483 308.562 95.1155 310.247 98.5057C311.933 101.896 312.776 105.854 312.776 110.381C312.776 114.888 311.933 118.828 310.247 122.199C308.562 125.57 306.194 128.193 303.145 130.068C300.096 131.943 296.526 132.881 292.435 132.881ZM292.463 125.75C295.115 125.75 297.312 125.049 299.054 123.648C300.796 122.246 302.084 120.381 302.918 118.051C303.77 115.722 304.196 113.155 304.196 110.352C304.196 107.568 303.77 105.011 302.918 102.682C302.084 100.333 300.796 98.4489 299.054 97.0284C297.312 95.608 295.115 94.8977 292.463 94.8977C289.793 94.8977 287.577 95.608 285.815 97.0284C284.073 98.4489 282.776 100.333 281.923 102.682C281.09 105.011 280.673 107.568 280.673 110.352C280.673 113.155 281.09 115.722 281.923 118.051C282.776 120.381 284.073 122.246 285.815 123.648C287.577 125.049 289.793 125.75 292.463 125.75ZM340.638 132.881C336.547 132.881 332.977 131.943 329.928 130.068C326.878 128.193 324.511 125.57 322.825 122.199C321.14 118.828 320.297 114.888 320.297 110.381C320.297 105.854 321.14 101.896 322.825 98.5057C324.511 95.1155 326.878 92.483 329.928 90.608C332.977 88.733 336.547 87.7955 340.638 87.7955C344.729 87.7955 348.299 88.733 351.348 90.608C354.397 92.483 356.765 95.1155 358.45 98.5057C360.136 101.896 360.979 105.854 360.979 110.381C360.979 114.888 360.136 118.828 358.45 122.199C356.765 125.57 354.397 128.193 351.348 130.068C348.299 131.943 344.729 132.881 340.638 132.881ZM340.666 125.75C343.318 125.75 345.515 125.049 347.257 123.648C349 122.246 350.287 120.381 351.121 118.051C351.973 115.722 352.399 113.155 352.399 110.352C352.399 107.568 351.973 105.011 351.121 102.682C350.287 100.333 349 98.4489 347.257 97.0284C345.515 95.608 343.318 94.8977 340.666 94.8977C337.996 94.8977 335.78 95.608 334.018 97.0284C332.276 98.4489 330.979 100.333 330.126 102.682C329.293 105.011 328.876 107.568 328.876 110.352C328.876 113.155 329.293 115.722 330.126 118.051C330.979 120.381 332.276 122.246 334.018 123.648C335.78 125.049 337.996 125.75 340.666 125.75ZM378.273 117.199L378.216 106.83H379.693L397.08 88.3636H407.25L387.42 109.386H386.085L378.273 117.199ZM370.46 132V73.8182H378.955V132H370.46ZM398.017 132L382.392 111.261L388.244 105.324L408.443 132H398.017ZM415.673 132V73.8182H436.98C441.109 73.8182 444.527 74.5 447.236 75.8636C449.944 77.2083 451.971 79.036 453.315 81.3466C454.66 83.6383 455.332 86.2235 455.332 89.1023C455.332 91.5265 454.887 93.572 453.997 95.2386C453.107 96.8864 451.914 98.2121 450.418 99.2159C448.94 100.201 447.312 100.92 445.531 101.375V101.943C447.463 102.038 449.348 102.663 451.185 103.818C453.041 104.955 454.575 106.574 455.787 108.676C456.999 110.778 457.605 113.335 457.605 116.347C457.605 119.32 456.904 121.991 455.503 124.358C454.12 126.706 451.98 128.572 449.082 129.955C446.185 131.318 442.482 132 437.974 132H415.673ZM424.452 124.472H437.122C441.327 124.472 444.338 123.657 446.156 122.028C447.974 120.4 448.884 118.364 448.884 115.92C448.884 114.083 448.42 112.398 447.491 110.864C446.563 109.33 445.238 108.108 443.514 107.199C441.81 106.29 439.783 105.835 437.435 105.835H424.452V124.472ZM424.452 98.9886H436.213C438.183 98.9886 439.954 98.6098 441.526 97.8523C443.116 97.0947 444.376 96.0341 445.304 94.6705C446.251 93.2879 446.724 91.6591 446.724 89.7841C446.724 87.3788 445.882 85.3617 444.196 83.733C442.51 82.1042 439.925 81.2898 436.44 81.2898H424.452V98.9886ZM480.034 132.966C477.269 132.966 474.769 132.455 472.534 131.432C470.299 130.39 468.528 128.884 467.222 126.915C465.934 124.945 465.29 122.53 465.29 119.67C465.29 117.208 465.763 115.182 466.71 113.591C467.657 112 468.936 110.741 470.545 109.812C472.155 108.884 473.955 108.184 475.943 107.71C477.932 107.237 479.958 106.877 482.023 106.631C484.636 106.328 486.758 106.081 488.386 105.892C490.015 105.684 491.199 105.352 491.938 104.898C492.676 104.443 493.045 103.705 493.045 102.682V102.483C493.045 100.002 492.345 98.0795 490.943 96.7159C489.561 95.3523 487.496 94.6705 484.75 94.6705C481.89 94.6705 479.636 95.3049 477.989 96.5739C476.36 97.8239 475.233 99.2159 474.608 100.75L466.625 98.9318C467.572 96.2803 468.955 94.1402 470.773 92.5114C472.61 90.8636 474.722 89.6705 477.108 88.9318C479.494 88.1742 482.004 87.7955 484.636 87.7955C486.379 87.7955 488.225 88.0038 490.176 88.4205C492.146 88.8182 493.983 89.5568 495.688 90.6364C497.411 91.7159 498.822 93.2595 499.92 95.267C501.019 97.2557 501.568 99.8409 501.568 103.023V132H493.273V126.034H492.932C492.383 127.133 491.559 128.212 490.46 129.273C489.362 130.333 487.951 131.214 486.227 131.915C484.504 132.616 482.439 132.966 480.034 132.966ZM481.881 126.148C484.229 126.148 486.237 125.684 487.903 124.756C489.589 123.828 490.867 122.616 491.739 121.119C492.629 119.604 493.074 117.985 493.074 116.261V110.636C492.771 110.939 492.184 111.223 491.312 111.489C490.46 111.735 489.485 111.953 488.386 112.142C487.288 112.312 486.218 112.473 485.176 112.625C484.134 112.758 483.263 112.871 482.562 112.966C480.915 113.174 479.409 113.525 478.045 114.017C476.701 114.509 475.621 115.22 474.807 116.148C474.011 117.057 473.614 118.269 473.614 119.784C473.614 121.886 474.39 123.477 475.943 124.557C477.496 125.617 479.475 126.148 481.881 126.148ZM512.882 132V88.3636H521.092V95.2955H521.547C522.342 92.947 523.744 91.1004 525.751 89.7557C527.778 88.392 530.07 87.7102 532.626 87.7102C533.157 87.7102 533.782 87.7292 534.501 87.767C535.24 87.8049 535.818 87.8523 536.234 87.9091V96.0341C535.893 95.9394 535.287 95.8352 534.416 95.7216C533.545 95.589 532.674 95.5227 531.803 95.5227C529.795 95.5227 528.005 95.9489 526.433 96.8011C524.88 97.6345 523.649 98.7992 522.74 100.295C521.831 101.773 521.376 103.458 521.376 105.352V132H512.882ZM566.533 88.3636V95.1818H542.697V88.3636H566.533ZM549.089 77.9091H557.584V119.188C557.584 120.835 557.83 122.076 558.322 122.909C558.815 123.723 559.449 124.282 560.226 124.585C561.021 124.869 561.883 125.011 562.811 125.011C563.493 125.011 564.089 124.964 564.601 124.869C565.112 124.775 565.51 124.699 565.794 124.642L567.328 131.659C566.836 131.848 566.135 132.038 565.226 132.227C564.317 132.436 563.18 132.549 561.817 132.568C559.582 132.606 557.499 132.208 555.567 131.375C553.635 130.542 552.072 129.254 550.879 127.511C549.686 125.769 549.089 123.581 549.089 120.949V77.9091ZM594.267 132.881C589.968 132.881 586.265 131.962 583.159 130.125C580.072 128.269 577.686 125.665 576 122.312C574.333 118.941 573.5 114.992 573.5 110.466C573.5 105.996 574.333 102.057 576 98.6477C577.686 95.2386 580.034 92.5777 583.045 90.6648C586.076 88.7519 589.617 87.7955 593.67 87.7955C596.133 87.7955 598.519 88.2027 600.83 89.017C603.14 89.8314 605.214 91.1098 607.051 92.8523C608.888 94.5947 610.337 96.858 611.398 99.642C612.458 102.407 612.989 105.769 612.989 109.727V112.739H578.301V106.375H604.665C604.665 104.14 604.21 102.161 603.301 100.438C602.392 98.6951 601.114 97.322 599.466 96.3182C597.837 95.3144 595.924 94.8125 593.727 94.8125C591.341 94.8125 589.258 95.3996 587.477 96.5739C585.716 97.7292 584.352 99.2443 583.386 101.119C582.439 102.975 581.966 104.992 581.966 107.17V112.142C581.966 115.059 582.477 117.54 583.5 119.585C584.542 121.631 585.991 123.193 587.847 124.273C589.703 125.333 591.871 125.864 594.352 125.864C595.962 125.864 597.43 125.636 598.756 125.182C600.081 124.708 601.227 124.008 602.193 123.08C603.159 122.152 603.898 121.006 604.409 119.642L612.449 121.091C611.805 123.458 610.65 125.532 608.983 127.312C607.335 129.074 605.261 130.447 602.761 131.432C600.28 132.398 597.449 132.881 594.267 132.881ZM622.413 132V88.3636H630.624V95.2955H631.078C631.874 92.947 633.275 91.1004 635.283 89.7557C637.309 88.392 639.601 87.7102 642.158 87.7102C642.688 87.7102 643.313 87.7292 644.033 87.767C644.771 87.8049 645.349 87.8523 645.766 87.9091V96.0341C645.425 95.9394 644.819 95.8352 643.947 95.7216C643.076 95.589 642.205 95.5227 641.334 95.5227C639.326 95.5227 637.536 95.9489 635.964 96.8011C634.411 97.6345 633.18 98.7992 632.271 100.295C631.362 101.773 630.908 103.458 630.908 105.352V132H622.413Z" fill="black"/>
</svg>
