<svg width="85" height="42" viewBox="0 0 85 42" fill="none" xmlns="http://www.w3.org/2000/svg">
<path d="M83.1769 17.2339C84.0035 17.2892 84.6288 18.004 84.5736 18.8306L83.6736 32.3006C83.6183 33.1272 82.9035 33.7525 82.0769 33.6972C81.2503 33.642 80.625 32.9271 80.6802 32.1006L81.4803 20.1273L69.507 19.3272C68.6804 19.272 68.0551 18.5572 68.1103 17.7306C68.1655 16.904 68.8804 16.2787 69.707 16.3339L83.1769 17.2339ZM51.096 17.2755C54.5028 20.9212 58.6047 24.1301 63.5682 24.9238C68.4542 25.705 74.5482 24.1981 82.0893 17.6016L84.0645 19.8596C76.0818 26.8423 69.1232 28.8501 63.0945 27.8861C57.1434 26.9346 52.4688 23.1384 48.904 19.3238L51.096 17.2755Z" fill="black"/>
<path d="M2 35.25C2 33.9902 2.49386 32.782 3.37294 31.8912C4.25201 31.0004 5.4443 30.5 6.6875 30.5H32" fill="#FFCA97"/>
<path d="M6.6875 2H32V40H6.6875C5.4443 40 4.25201 39.4996 3.37294 38.6088C2.49386 37.718 2 36.5098 2 35.25V6.75C2 5.49022 2.49386 4.28204 3.37294 3.39124C4.25201 2.50044 5.4443 2 6.6875 2Z" fill="#FFCA97"/>
<path d="M2 35.25C2 33.9902 2.49386 32.782 3.37294 31.8912C4.25201 31.0004 5.4443 30.5 6.6875 30.5H32M2 35.25C2 36.5098 2.49386 37.718 3.37294 38.6088C4.25201 39.4996 5.4443 40 6.6875 40H32V2H6.6875C5.4443 2 4.25201 2.50044 3.37294 3.39124C2.49386 4.28204 2 5.49022 2 6.75V35.25Z" stroke="#1E1E1E" stroke-width="4" stroke-linecap="round" stroke-linejoin="round"/>
</svg>
